<?xml version="1.0" encoding="UTF-8" standalone="no"?>
<!-- Created with Inkscape (http://www.inkscape.org/) -->

<svg
   xmlns:dc="http://purl.org/dc/elements/1.1/"
   xmlns:cc="http://creativecommons.org/ns#"
   xmlns:rdf="http://www.w3.org/1999/02/22-rdf-syntax-ns#"
   xmlns:svg="http://www.w3.org/2000/svg"
   xmlns="http://www.w3.org/2000/svg"
   xmlns:sodipodi="http://sodipodi.sourceforge.net/DTD/sodipodi-0.dtd"
   xmlns:inkscape="http://www.inkscape.org/namespaces/inkscape"
   width="200"
   height="460"
   viewBox="0 190 200 460"
   id="svg2"
   version="1.1"
   inkscape:version="0.48.0 r9654"
   sodipodi:docname="Joy-Con.svg">
  <defs
     id="defs4">
    <filter
       inkscape:collect="always"
       id="filter3994"
       color-interpolation-filters="sRGB">
      <feGaussianBlur
         inkscape:collect="always"
         stdDeviation="0.95"
         id="feGaussianBlur3996" />
    </filter>
  </defs>
  <sodipodi:namedview
     id="base"
     pagecolor="#ffffff"
     bordercolor="#666666"
     borderopacity="1.0"
     inkscape:pageopacity="0.0"
     inkscape:pageshadow="2"
     inkscape:zoom="1.035"
     inkscape:cx="600"
     inkscape:cy="400"
     inkscape:document-units="px"
     inkscape:current-layer="layer1"
     showgrid="false"
     inkscape:window-width="1920"
     inkscape:window-height="1017"
     inkscape:window-x="-8"
     inkscape:window-y="-8"
     inkscape:window-maximized="1" />
  <metadata
     id="metadata7">
    <rdf:RDF>
      <cc:Work
         rdf:about="">
        <dc:format>image/svg+xml</dc:format>
        <dc:type
           rdf:resource="http://purl.org/dc/dcmitype/StillImage" />
        <dc:title />
      </cc:Work>
    </rdf:RDF>
  </metadata>
  <style>
   .body-shell {
      fill: #fff;
   }
   .button {
      fill: #44484c;
   }
  </style>
  <g
     inkscape:label="Livello 1"
     inkscape:groupmode="layer"
     id="layer1"
     transform="translate(0,-252.36218)">
    <path xmlns="http://www.w3.org/2000/svg" xmlns:sodipodi="http://sodipodi.sourceforge.net/DTD/sodipodi-0.dtd" sodipodi:nodetypes="ccccccc" xmlns:inkscape="http://www.inkscape.org/namespaces/inkscape" inkscape:connector-curvature="0" id="path3824" d="m 1021.7462,750.85843 4.1985,0 0,-34.51565 -4.1101,0 c -1.4355,0 -2.1655,1.00126 -2.1655,2.16551 l 0,30.53818 c 0,1.10492 0.8085,1.81196 2.0771,1.81196 z" class="body-shell" style="fill-opacity:1;stroke:#000000;stroke-width:1px;stroke-linecap:butt;stroke-linejoin:miter;stroke-opacity:1"/>
    <path xmlns="http://www.w3.org/2000/svg" xmlns:sodipodi="http://sodipodi.sourceforge.net/DTD/sodipodi-0.dtd" sodipodi:nodetypes="ccccccc" xmlns:inkscape="http://www.inkscape.org/namespaces/inkscape" inkscape:connector-curvature="0" id="path3828" d="m 178.19982,547.09278 -4.19844,0 0,34.51565 4.11005,0 c 1.43551,0 2.16552,-1.00126 2.16552,-2.16551 l 0,-30.53818 c 0,-1.10492 -0.80847,-1.81196 -2.07713,-1.81196 z" class="body-shell" style="fill-opacity:1;stroke:#000000;stroke-width:1px;stroke-linecap:butt;stroke-linejoin:miter;stroke-opacity:1"/>
    <path xmlns="http://www.w3.org/2000/svg" class="body-shell" style="fill-opacity:1;stroke:#000000;stroke-width:1px;stroke-linecap:butt;stroke-linejoin:miter;stroke-opacity:1" d="m 178.19982,750.85843 -4.19844,0 0,-34.51565 4.11005,0 c 1.43551,0 2.16552,1.00126 2.16552,2.16551 l 0,30.53818 c 0,1.10492 -0.80847,1.81196 -2.07713,1.81196 z" id="path3830" xmlns:inkscape="http://www.inkscape.org/namespaces/inkscape" inkscape:connector-curvature="0" xmlns:sodipodi="http://sodipodi.sourceforge.net/DTD/sodipodi-0.dtd" sodipodi:nodetypes="ccccccc"/>
    <path xmlns="http://www.w3.org/2000/svg" xmlns:sodipodi="http://sodipodi.sourceforge.net/DTD/sodipodi-0.dtd" sodipodi:nodetypes="cccccccccccccccccc" xmlns:inkscape="http://www.inkscape.org/namespaces/inkscape" inkscape:connector-curvature="0" id="path3826" d="m 178.73015,475.40983 -14.00955,0 0,335.59891 6.55516,0 0,13.9375 c 0,1.5574 1.30818,4.18497 2.41619,4.18497 l 4.88068,0 c 0.89533,0 1.70187,-0.69146 1.70187,-1.70186 l 0,-65.24352 c 0,-8.61907 -5.38924,-8.72486 -5.38924,-11.4463 l 0,-34.60403 c 0,-2.45548 5.25911,-3.05964 5.25911,-10.07628 l 0,-114.55129 c 0,-6.95525 -5.25911,-7.42304 -5.25911,-10.07628 l 0.125,-34.02951 c 0,-2.34388 5.25911,-4.1493 5.25911,-10.38563 l -0.003,-59.80577 c 0.009,-0.98171 -0.47425,-1.80091 -1.53575,-1.80091 z" style="fill:#44484c;fill-opacity:1;stroke:#000000;stroke-width:1px;stroke-linecap:butt;stroke-linejoin:miter;stroke-opacity:1"/>
    <path xmlns="http://www.w3.org/2000/svg" xmlns:sodipodi="http://sodipodi.sourceforge.net/DTD/sodipodi-0.dtd" sodipodi:nodetypes="cccccccc" xmlns:inkscape="http://www.inkscape.org/namespaces/inkscape" inkscape:connector-curvature="0" id="path3832" d="m 142.86562,454.00874 0,-4.1875 c 0,-1.25689 -1.28376,-2.65625 -2.65625,-2.65625 l -26.25,0 c -40.493551,0 -76.739828,32.66191 -82.951478,55.8441 -0.28337,1.05756 -0.38499,3.18198 1.4584,3.18198 l 4.66249,0 z" class="button" style="fill-opacity:1;stroke:#000000;stroke-width:1px;stroke-linecap:butt;stroke-linejoin:miter;stroke-opacity:1"/>
    <path xmlns="http://www.w3.org/2000/svg" xmlns:sodipodi="http://sodipodi.sourceforge.net/DTD/sodipodi-0.dtd" sodipodi:nodetypes="ccccccccc" xmlns:inkscape="http://www.inkscape.org/namespaces/inkscape" inkscape:connector-curvature="0" id="path3925" d="m 165.90787,455.54757 0,412.68749 c 0,1.0235 -0.5059,1.7969 -1.79687,1.7969 l -49.64063,0 c -51.679508,0 -85.074858,-45.69768 -85.074858,-85.07487 l 0,-247.94077 c 0,-57.88508 56.764387,-84.71894 84.718948,-84.71894 l 48.79057,0 c 2.4861,0 3.00284,1.36797 3.00284,3.25019 z" class="body-shell" style="fill-opacity:1;stroke:#000000;stroke-width:1px;stroke-linecap:butt;stroke-linejoin:miter;stroke-opacity:1"/>
    <path xmlns="http://www.w3.org/2000/svg" transform="matrix(1.2120324,0,0,1.2120324,-521.29791,512.58438)" d="m 526.42859,111.07143 a 12.5,12.5 0 1 1 -25,0 12.5,12.5 0 1 1 25,0 z" xmlns:sodipodi="http://sodipodi.sourceforge.net/DTD/sodipodi-0.dtd" sodipodi:ry="12.5" sodipodi:rx="12.5" sodipodi:cy="111.07143" sodipodi:cx="513.92859" id="path3871" class="button" style="fill-opacity:1;stroke:#000000;stroke-width:0.82506043;stroke-linecap:round;stroke-linejoin:round;stroke-miterlimit:4;stroke-opacity:1;stroke-dasharray:none" sodipodi:type="arc"/>
    <path xmlns="http://www.w3.org/2000/svg" xmlns:sodipodi="http://sodipodi.sourceforge.net/DTD/sodipodi-0.dtd" sodipodi:type="arc" class="button" style="fill-opacity:1;stroke:#000000;stroke-width:0.82506043;stroke-linecap:round;stroke-linejoin:round;stroke-miterlimit:4;stroke-opacity:1;stroke-dasharray:none" id="path3873" sodipodi:cx="513.92859" sodipodi:cy="111.07143" sodipodi:rx="12.5" sodipodi:ry="12.5" d="m 526.42859,111.07143 a 12.5,12.5 0 1 1 -25,0 12.5,12.5 0 1 1 25,0 z" transform="matrix(1.2120324,0,0,1.2120324,-521.29791,575.21384)"/>
    <path xmlns="http://www.w3.org/2000/svg" xmlns:sodipodi="http://sodipodi.sourceforge.net/DTD/sodipodi-0.dtd" sodipodi:type="arc" class="button" style="fill-opacity:1;stroke:#000000;stroke-width:0.82506043;stroke-linecap:round;stroke-linejoin:round;stroke-miterlimit:4;stroke-opacity:1;stroke-dasharray:none" id="path3875" sodipodi:cx="513.92859" sodipodi:cy="111.07143" sodipodi:rx="12.5" sodipodi:ry="12.5" d="m 526.42859,111.07143 a 12.5,12.5 0 1 1 -25,0 12.5,12.5 0 1 1 25,0 z" transform="matrix(0,1.2120324,-1.2120324,0,204.9076,55.623182)"/>
    <path xmlns="http://www.w3.org/2000/svg" transform="matrix(0,1.2120324,-1.2120324,0,267.53706,55.623182)" d="m 526.42859,111.07143 a 12.5,12.5 0 1 1 -25,0 12.5,12.5 0 1 1 25,0 z" xmlns:sodipodi="http://sodipodi.sourceforge.net/DTD/sodipodi-0.dtd" sodipodi:ry="12.5" sodipodi:rx="12.5" sodipodi:cy="111.07143" sodipodi:cx="513.92859" id="path3877" class="button" style="fill-opacity:1;stroke:#000000;stroke-width:0.82506043;stroke-linecap:round;stroke-linejoin:round;stroke-miterlimit:4;stroke-opacity:1;stroke-dasharray:none" sodipodi:type="arc"/>
    <rect xmlns="http://www.w3.org/2000/svg" class="button" style="fill-opacity:1;stroke:#000000;stroke-width:1;stroke-linecap:round;stroke-linejoin:round;stroke-miterlimit:4;stroke-opacity:1;stroke-dasharray:none" id="rect3890" width="22.1875" height="6.375" x="132.65929" y="490.63376"/>
    <path xmlns="http://www.w3.org/2000/svg" transform="translate(-411.71571,302.44624)" d="m 545.5,258.1875 a 32.0625,32.0625 0 1 1 -64.125,0 32.0625,32.0625 0 1 1 64.125,0 z" xmlns:sodipodi="http://sodipodi.sourceforge.net/DTD/sodipodi-0.dtd" sodipodi:ry="32.0625" sodipodi:rx="32.0625" sodipodi:cy="258.1875" sodipodi:cx="513.4375" id="path3907" class="button" style="fill-opacity:1;stroke:#000000;stroke-width:1;stroke-linecap:round;stroke-linejoin:round;stroke-miterlimit:4;stroke-opacity:1;stroke-dasharray:none" sodipodi:type="arc"/>
    <path xmlns="http://www.w3.org/2000/svg" xmlns:sodipodi="http://sodipodi.sourceforge.net/DTD/sodipodi-0.dtd" sodipodi:type="arc" class="button" style="fill-opacity:1;stroke:#000000;stroke-width:1.42600417;stroke-linecap:round;stroke-linejoin:round;stroke-miterlimit:4;stroke-opacity:1;stroke-dasharray:none" id="path3909" sodipodi:cx="513.4375" sodipodi:cy="258.1875" sodipodi:rx="32.0625" sodipodi:ry="32.0625" d="m 545.5,258.1875 a 32.0625,32.0625 0 1 1 -64.125,0 32.0625,32.0625 0 1 1 64.125,0 z" transform="matrix(0.70126019,0,0,0.70126019,-258.33148,379.79953)"/>
    <path xmlns="http://www.w3.org/2000/svg" xmlns:inkscape="http://www.inkscape.org/namespaces/inkscape" inkscape:connector-curvature="0" id="path3911" d="m 100.56002,534.51999 c 2e-4,-2.14499 0.006,-3.41233 0.0158,-3.48046 0.0299,-0.20675 0.13156,-0.40432 0.28919,-0.56195 0.4752,-0.4752 1.28334,-0.33419 1.57638,0.27505 0.10984,0.22838 0.10221,-0.0485 0.10247,3.71783 l 2.3e-4,3.40192 -0.70143,-8.2e-4 c -0.38578,-4.5e-4 -0.83227,0.004 -0.99219,0.0105 l -0.29075,0.0113 3e-4,-3.37331 z" style="fill:#000000;stroke:#000000;stroke-width:0.03125;stroke-linecap:round;stroke-linejoin:round;stroke-miterlimit:4;stroke-opacity:1;stroke-dasharray:none"/>
    <path xmlns="http://www.w3.org/2000/svg" xmlns:inkscape="http://www.inkscape.org/namespaces/inkscape" inkscape:connector-curvature="0" id="path3913" d="m 101.44044,590.94079 c -0.38945,-0.0436 -0.7247,-0.33325 -0.8473,-0.73195 -0.0244,-0.0793 -0.0268,-0.33014 -0.0311,-3.23924 l -0.005,-3.1533 0.2308,0.0127 c 0.12694,0.007 0.57368,0.0127 0.99275,0.0127 l 0.76194,0 -0.004,3.15625 -0.004,3.15625 -0.0347,0.10157 c -0.10445,0.30532 -0.34564,0.54509 -0.65134,0.64749 -0.0998,0.0334 -0.28935,0.0509 -0.40814,0.0376 l 0,0 z" style="fill:#000000;fill-opacity:1;stroke:#000000;stroke-width:0.03125;stroke-linecap:round;stroke-linejoin:round;stroke-miterlimit:4;stroke-opacity:1;stroke-dasharray:none"/>
    <path xmlns="http://www.w3.org/2000/svg" xmlns:inkscape="http://www.inkscape.org/namespaces/inkscape" inkscape:connector-curvature="0" id="path3915" d="m 124.70653,560.92405 c 0,-0.35469 -0.006,-0.80142 -0.0127,-0.99274 l -0.0127,-0.34784 3.23141,0.004 3.23141,0.004 0.11461,0.0419 c 0.43114,0.15748 0.6991,0.55501 0.66997,0.99393 -0.0161,0.24326 -0.11165,0.45768 -0.28091,0.63065 -0.13281,0.13572 -0.25762,0.20774 -0.48804,0.28161 -0.0498,0.016 -0.71149,0.021 -3.25781,0.0246 l -3.19532,0.005 0,-0.6449 0,0 z" style="fill:#000000;fill-opacity:1;stroke:#000000;stroke-width:0.03125;stroke-linecap:round;stroke-linejoin:round;stroke-miterlimit:4;stroke-opacity:1;stroke-dasharray:none"/>
    <path xmlns="http://www.w3.org/2000/svg" xmlns:inkscape="http://www.inkscape.org/namespaces/inkscape" inkscape:connector-curvature="0" id="path3917" d="m 72.034659,561.55188 c -0.21504,-0.0284 -0.42503,-0.1369 -0.57817,-0.2988 -0.53275,-0.56321 -0.26401,-1.4625 0.49223,-1.64714 0.0705,-0.0172 0.68912,-0.0211 3.44981,-0.0215 l 3.36387,-5.6e-4 -0.0123,0.33203 c -0.007,0.18262 -0.0123,0.62911 -0.0123,0.9922 l 0,0.66016 -3.30468,-0.002 c -1.81758,-10e-4 -3.34688,-0.008 -3.39844,-0.0144 z" style="fill:#000000;fill-opacity:1;stroke:#000000;stroke-width:0.03125;stroke-linecap:round;stroke-linejoin:round;stroke-miterlimit:4;stroke-opacity:1;stroke-dasharray:none"/>
    <rect xmlns="http://www.w3.org/2000/svg" class="button" style="fill-opacity:1;stroke:#000000;stroke-width:1;stroke-linecap:round;stroke-linejoin:round;stroke-miterlimit:4;stroke-opacity:1;stroke-dasharray:none" id="rect3919" width="25.75" height="25.125" x="111.78429" y="745.50873" ry="3.375"/>
    <path xmlns="http://www.w3.org/2000/svg" xmlns:sodipodi="http://sodipodi.sourceforge.net/DTD/sodipodi-0.dtd" sodipodi:type="arc" style="fill:#000000;stroke:#000000;stroke-width:1;stroke-linecap:round;stroke-linejoin:round;stroke-miterlimit:4;stroke-opacity:1;stroke-dasharray:none" id="path3921" sodipodi:cx="743.96875" sodipodi:cy="340.15625" sodipodi:rx="8.84375" sodipodi:ry="8.84375" d="m 752.8125,340.15625 a 8.84375,8.84375 0 1 1 -17.6875,0 8.84375,8.84375 0 1 1 17.6875,0 z" transform="translate(-619.40321,418.13374)"/>
    <path xmlns="http://www.w3.org/2000/svg" xmlns:sodipodi="http://sodipodi.sourceforge.net/DTD/sodipodi-0.dtd" sodipodi:type="star" style="fill:#000000;stroke:#000000;stroke-width:0.90469444;stroke-linecap:round;stroke-linejoin:round;stroke-miterlimit:4;stroke-opacity:1;stroke-dasharray:none" id="path3014" sodipodi:sides="3" sodipodi:cx="138.28357" sodipodi:cy="856.82373" sodipodi:r1="6.6210189" sodipodi:r2="3.3105094" sodipodi:arg1="2.0943951" sodipodi:arg2="3.1415927" xmlns:inkscape="http://www.inkscape.org/namespaces/inkscape" inkscape:flatsided="true" inkscape:rounded="0" inkscape:randomized="0" d="m 134.97306,862.5577 0,-11.46794 9.93153,5.73397 z" transform="matrix(1.1053456,0,0,1.1053456,-20.313598,-268.53424)" inkscape:transform-center-x="-1.8296276" inkscape:transform-center-y="-1.0018697e-005"/>
    <path xmlns="http://www.w3.org/2000/svg" xmlns:inkscape="http://www.inkscape.org/namespaces/inkscape" inkscape:transform-center-y="-1.0018697e-005" inkscape:transform-center-x="1.8296245" transform="matrix(-1.1053456,0,0,1.1053456,223.67293,-268.53424)" d="m 134.97306,862.5577 0,-11.46794 9.93153,5.73397 z" inkscape:randomized="0" inkscape:rounded="0" inkscape:flatsided="true" xmlns:sodipodi="http://sodipodi.sourceforge.net/DTD/sodipodi-0.dtd" sodipodi:arg2="3.1415927" sodipodi:arg1="2.0943951" sodipodi:r2="3.3105094" sodipodi:r1="6.6210189" sodipodi:cy="856.82373" sodipodi:cx="138.28357" sodipodi:sides="3" id="path3788" style="fill:#000000;stroke:#000000;stroke-width:0.90469444;stroke-linecap:round;stroke-linejoin:round;stroke-miterlimit:4;stroke-opacity:1;stroke-dasharray:none" sodipodi:type="star"/>
    <path xmlns="http://www.w3.org/2000/svg" transform="matrix(0,-1.1053456,1.1053456,0,-845.5054,800.7181)" d="m 134.97306,862.5577 0,-11.46794 9.93153,5.73397 z" xmlns:inkscape="http://www.inkscape.org/namespaces/inkscape" inkscape:randomized="0" inkscape:rounded="0" inkscape:flatsided="true" xmlns:sodipodi="http://sodipodi.sourceforge.net/DTD/sodipodi-0.dtd" sodipodi:arg2="3.1415927" sodipodi:arg1="2.0943951" sodipodi:r2="3.3105094" sodipodi:r1="6.6210189" sodipodi:cy="856.82373" sodipodi:cx="138.28357" sodipodi:sides="3" id="path3790" style="fill:#000000;stroke:#000000;stroke-width:0.90469444;stroke-linecap:round;stroke-linejoin:round;stroke-miterlimit:4;stroke-opacity:1;stroke-dasharray:none" sodipodi:type="star" inkscape:transform-center-y="-1.8296239"/>
    <path xmlns="http://www.w3.org/2000/svg" xmlns:sodipodi="http://sodipodi.sourceforge.net/DTD/sodipodi-0.dtd" sodipodi:type="star" style="fill:#000000;stroke:#000000;stroke-width:0.90469444;stroke-linecap:round;stroke-linejoin:round;stroke-miterlimit:4;stroke-opacity:1;stroke-dasharray:none" id="path3792" sodipodi:sides="3" sodipodi:cx="138.28357" sodipodi:cy="856.82373" sodipodi:r1="6.6210189" sodipodi:r2="3.3105094" sodipodi:arg1="2.0943951" sodipodi:arg2="3.1415927" xmlns:inkscape="http://www.inkscape.org/namespaces/inkscape" inkscape:flatsided="true" inkscape:rounded="0" inkscape:randomized="0" d="m 134.97306,862.5577 0,-11.46794 9.93153,5.73397 z" transform="matrix(0,1.1053456,1.1053456,0,-845.5054,556.73157)" inkscape:transform-center-y="1.829623"/>
  </g>
</svg>
